# xmcd
#
# Track frame offsets: 
#        150
#        20772
#        40480
#        67792
#
# Disc length: 1142 seconds
#
# Revision: 3
# Processed by: cddbd v1.5.2PL0 Copyright (c) Steve Scherf et al.
# Submitted via: ExactAudioCopy v1.0b3
#
DISCID=2e047404
DTITLE=Chris Rea - Winter Song [Four Track E.P.]
DYEAR=1991
DGENRE=Pop
TTITLE0=Winter Song
TTITLE1=Footprints In The Snow
TTITLE2=Tell Me There's A Heaven
TTITLE3=True To You
EXTD=
EXTT0=
EXTT1=
EXTT2=
EXTT3=
PLAYORDER=
